<?xml version="1.0" standalone="no"?>
<!DOCTYPE svg PUBLIC "-//W3C//DTD SVG 20010904//EN"
 "http://www.w3.org/TR/2001/REC-SVG-20010904/DTD/svg10.dtd">
<svg version="1.0" xmlns="http://www.w3.org/2000/svg"
 width="700.000000pt" height="700.000000pt" viewBox="0 0 700.000000 700.000000"
 preserveAspectRatio="xMidYMid meet">
<metadata>
Created by potrace 1.14, written by Peter Selinger 2001-2017
</metadata>
<g transform="translate(0.000000,700.000000) scale(0.100000,-0.100000)"
fill="#000000" stroke="none">
<path d="M3087 6923 c-19 -8 -213 -195 -472 -453 l-440 -440 -670 -3 c-369 -2
-681 -7 -695 -10 -14 -4 -38 -10 -55 -13 -64 -14 -157 -65 -211 -116 -55 -52
-112 -147 -128 -213 -5 -16 -11 -39 -14 -50 -4 -11 -8 -519 -9 -1128 -4 -1222
-5 -1207 57 -1334 37 -75 -24 -12 1017 -1060 2095 -2111 1967 -1985 2063
-2031 112 -54 192 -72 305 -67 50 2 106 6 125 10 61 12 167 61 232 108 95 68
2085 2071 2127 2141 36 60 76 153 86 201 16 75 13 230 -6 303 -42 157 -91 227
-315 447 -89 88 -346 340 -569 560 -224 220 -495 487 -603 594 -108 106 -401
394 -651 640 -973 958 -934 920 -987 947 -42 22 -120 50 -169 59 -25 5 -257
15 -355 15 -20 0 29 54 277 303 165 166 307 316 315 332 33 69 13 170 -43 222
-55 51 -141 65 -212 36z m-1703 -1686 c-44 -48 -59 -84 -58 -144 1 -62 16 -97
61 -139 82 -77 186 -70 281 19 l55 52 -6 -62 c-12 -138 -115 -245 -256 -266
-50 -7 -133 14 -185 47 -178 114 -175 375 5 488 28 18 121 48 128 42 3 -3 -9
-19 -25 -37z"/>
</g>
</svg>
